<svg width="235" height="49" fill="none" xmlns="http://www.w3.org/2000/svg"><path d="M24.5 7C14.848 7 7 14.848 7 24.5 7 34.152 14.848 42 24.5 42 34.152 42 42 34.152 42 24.5 41.91 14.848 34.152 7 24.5 7z" fill="#0B6BDD"/><path fill-rule="evenodd" clip-rule="evenodd" d="M31.818 8.61v8.21a10.572 10.572 0 00-7.424-3.032c-5.858 0-10.606 4.748-10.606 10.606S18.536 35 24.394 35 35 30.252 35 24.394V10.527a17.42 17.42 0 00-3.182-1.917zm0 15.784v-.022a7.424 7.424 0 100 .022z" fill="#0C3A72"/><path d="M31.893 31.893a10.606 10.606 0 11-.08-15.08l-2.226 2.275a7.424 7.424 0 10.057 10.556l2.25 2.25z" fill="#fff"/><path d="M49 17.432c0-.723.598-1.325 1.316-1.325h6.222c1.795 0 3.23.361 4.667.964a6.982 6.982 0 013.11 2.77c.718 1.204 1.077 2.649 1.077 4.215 0 1.565-.359 3.01-1.076 4.215a6.982 6.982 0 01-3.111 2.77c-1.317.602-2.872.963-4.667.963h-6.222A1.332 1.332 0 0149 30.679V17.432zm10.53 9.875c.837-.722 1.196-1.806 1.196-3.251 0-1.446-.359-2.409-1.197-3.252A4.844 4.844 0 0056.3 19.6h-1.436c-.718 0-1.316.602-1.316 1.324v6.142c0 .723.598 1.325 1.316 1.325h1.436c1.701 0 2.918-.716 3.23-1.084zM77.238 26.705v3.974c0 .723-.598 1.325-1.316 1.325h-1.915a1.332 1.332 0 01-1.316-1.325v-4.094c0-.241-.12-.482-.24-.723l-4.546-7.707c-.478-.844.12-2.048 1.197-2.048h1.675c.478 0 .957.241 1.196.602l2.034 3.734c.479.843 1.795.843 2.274 0l2.273-3.734c.24-.361.718-.602 1.197-.602h1.196c1.077 0 1.675 1.084 1.197 2.047L77.5 25.862c-.262.345-.262.602-.262.843zM101.168 17.432V30.8c0 .722-.599 1.324-1.316 1.324h-1.676c-.359 0-.837-.12-1.076-.481l-4.308-5.179c-.838-.963-2.393-.361-2.393.843V30.8c0 .722-.598 1.324-1.316 1.324h-1.675a1.332 1.332 0 01-1.316-1.324V17.432c0-.723.598-1.325 1.316-1.325h1.675c.359 0 .837.12 1.077.482l4.188 5.178c.837.964 2.393.362 2.393-.843v-3.492c0-.723.598-1.325 1.316-1.325h1.675c.837 0 1.436.602 1.436 1.325zM115.647 28.994h-4.906c-.598 0-1.077.361-1.197.843l-.598 1.445c-.239.482-.718.843-1.196.843h-1.676c-.957 0-1.675-.963-1.196-1.927l5.863-13.368c.239-.481.718-.843 1.196-.843h2.633c.478 0 .957.362 1.196.843l5.863 13.368c.359.843-.239 1.927-1.196 1.927h-1.675c-.599 0-1.077-.361-1.197-.843l-.598-1.445c-.239-.482-.718-.843-1.316-.843zm-1.197-5.179c-.196-.46-.616-.905-1.32-.932-.762-.03-1.231.46-1.432.932a1.294 1.294 0 001.197 1.807h.119c1.197 0 1.795-.964 1.436-1.807zM139.696 30.8v-2.288c0-1.325-1.795-1.807-2.513-.723l-1.196 2.047c-.239.362-.718.602-1.197.602h-.478c-.479 0-.957-.24-1.197-.602l-1.196-1.927c-.718-1.204-2.513-.602-2.513.723V30.8c0 .722-.598 1.324-1.316 1.324h-1.436a1.332 1.332 0 01-1.316-1.324V17.432c0-.723.598-1.325 1.316-1.325h1.556c.478 0 .957.241 1.196.602l4.068 6.624c.479.843 1.795.843 2.274 0l3.948-6.624c.239-.361.718-.602 1.197-.602h1.555c.718 0 1.316.602 1.316 1.325V30.8c0 .722-.598 1.324-1.316 1.324h-1.436a1.332 1.332 0 01-1.316-1.324zM149.987 16.107h1.794c.718 0 1.317.602 1.317 1.325V30.8c0 .722-.599 1.324-1.317 1.324h-1.794a1.333 1.333 0 01-1.317-1.324V17.432c0-.723.599-1.325 1.317-1.325z" fill="#0B6BDD"/><path d="M161.354 31.282c-1.317-.723-2.393-1.686-3.111-3.01-.718-1.326-1.077-2.65-1.077-4.336 0-1.686.359-3.011 1.077-4.336.718-1.084 1.794-2.047 3.111-2.77 1.316-.722 2.871-1.084 4.546-1.084 1.436 0 2.752.241 3.949.723.718.361 1.316.723 1.914 1.204.599.482.599 1.445 0 2.048l-.957.843c-.478.481-1.196.481-1.795 0-.837-.723-1.794-1.084-2.871-1.084-.838 0-1.675.24-2.274.602-.718.361-1.196.963-1.555 1.565-.359.723-.598 1.446-.598 2.409 0 .963.239 1.686.598 2.409.359.722.837 1.204 1.555 1.565.718.362 1.436.602 2.274.602 1.077 0 2.034-.36 2.871-1.084.479-.481 1.317-.481 1.795 0l.957.844c.599.481.599 1.445 0 2.047-.598.482-1.196.843-1.914 1.204-1.197.482-2.513.723-3.949.723-1.675 0-3.23-.361-4.546-1.084zM179.422 31.282c-1.317-.722-2.394-1.686-3.111-3.01-.718-1.325-1.197-2.65-1.197-4.336 0-1.686.359-3.01 1.197-4.335.717-1.325 1.794-2.289 3.111-3.011 1.316-.723 2.871-1.084 4.546-1.084 1.675 0 3.231.361 4.547 1.084 1.316.722 2.393 1.686 3.111 3.01.718 1.325 1.197 2.65 1.197 4.336 0 1.686-.359 3.01-1.197 4.335-.718 1.325-1.795 2.289-3.111 3.011-1.316.723-2.872 1.084-4.547 1.084-1.675 0-3.23-.361-4.546-1.084zm6.7-3.251a4.85 4.85 0 001.556-1.566c.358-.723.598-1.445.598-2.409 0-.963-.24-1.686-.598-2.408a3.284 3.284 0 00-1.556-1.566 4.456 4.456 0 00-2.154-.602 4.11 4.11 0 00-2.153.602 4.84 4.84 0 00-1.556 1.566c-.359.722-.598 1.445-.598 2.408 0 .964.239 1.686.598 2.409a3.284 3.284 0 001.556 1.566 4.452 4.452 0 002.153.602c.838 0 1.556-.12 2.154-.602zM202.992 27.789h-.359c-.717 0-1.316.602-1.316 1.325v1.565c0 .723-.598 1.325-1.316 1.325h-1.795a1.332 1.332 0 01-1.316-1.325V17.432c0-.723.598-1.325 1.316-1.325h5.983c1.436 0 2.632.241 3.709.723a6.114 6.114 0 012.513 2.047c.598.843.837 1.927.837 3.131 0 1.205-.239 2.168-.837 3.011-.359.482-.718.964-1.197 1.325-.598.482-.718 1.204-.359 1.806l1.197 1.807c.598.843 0 2.167-1.077 2.167h-1.555c-.479 0-.838-.24-1.077-.602l-2.034-3.13c-.479-.362-.838-.603-1.317-.603zm2.872-7.587c-.479-.362-1.196-.602-2.034-.602h-1.197c-.717 0-1.316.602-1.316 1.324v2.048c0 .722.599 1.325 1.316 1.325h1.197c.957 0 1.675-.241 2.034-.603.359-.361.718-.963.718-1.686 0-.722-.239-1.325-.718-1.806zM228 29.957v.843c0 .722-.598 1.324-1.316 1.324h-10.051a1.332 1.332 0 01-1.316-1.324V17.432c0-.723.598-1.325 1.316-1.325h9.812c.717 0 1.316.602 1.316 1.325v.843c0 .723-.599 1.325-1.316 1.325h-5.385c-.718 0-1.316.602-1.316 1.324 0 .723.598 1.325 1.316 1.325h4.427c.718 0 1.316.602 1.316 1.325v.723c0 .722-.598 1.324-1.316 1.324h-4.427c-.718 0-1.316.602-1.316 1.325v.24c0 .723.598 1.326 1.316 1.326h5.624c.718.12 1.316.722 1.316 1.445z" fill="#0C3A72"/></svg>
